<svg width="132" height="38" viewBox="0 0 132 38" fill="none" xmlns="http://www.w3.org/2000/svg">
<g clip-path="url(#clip0_1_770)">
<mask id="mask0_1_770" style="mask-type:luminance" maskUnits="userSpaceOnUse" x="0" y="0" width="132" height="38">
<path d="M132 0H0V38H132V0Z" fill="white"/>
</mask>
<g mask="url(#mask0_1_770)">
<path d="M6.85455 6.09752V20.3495C6.84822 20.9709 6.88565 21.5921 6.96656 22.2084C7.04123 22.7258 7.15636 23.3579 7.30882 24.1138C7.45824 24.7065 7.54685 25.3127 7.57329 25.9232C7.61495 26.5581 7.44187 27.1885 7.08168 27.714C6.90777 27.9232 6.68655 28.0885 6.43615 28.1962C6.18575 28.3039 5.91329 28.351 5.64109 28.3336C5.31992 28.3382 5.00154 28.2737 4.70765 28.1446C4.38366 27.9927 4.07163 27.8166 3.77422 27.6179C3.34173 27.3918 2.99636 27.2214 2.73188 27.1098C2.45022 26.9926 2.14725 26.9346 1.842 26.9394C1.35796 26.9131 0.882622 27.0753 0.516534 27.3918C0.354483 27.5394 0.22658 27.7203 0.141695 27.9219C0.0568093 28.1236 0.0169649 28.3413 0.0249204 28.5598C0.0249204 29.2631 0.401404 29.8301 1.1606 30.2576C2.073 30.721 3.09008 30.9419 4.11337 30.899C6.21048 30.899 7.80769 30.2453 8.90499 28.9378C10.0023 27.6303 10.5426 25.7404 10.5261 23.268V6.21215L12.9001 3.12939H4.27827L6.85455 6.09752Z" fill="#FAF9EF"/>
<path d="M33.7032 10.4719H27.2656L30.2183 13.8273V22.8772C29.789 24.6371 29.0567 26.0075 28.0217 26.9886C27.5373 27.4628 26.9636 27.8369 26.3335 28.0895C25.7034 28.342 25.0293 28.4681 24.3502 28.4603C23.062 28.4603 22.0705 28.0472 21.3756 27.221C20.6807 26.3948 20.3343 25.2071 20.3364 23.658V10.4595H14.0482L16.7365 13.5143V23.9214C16.7365 26.0839 17.311 27.7869 18.4602 29.0304C19.6093 30.2738 21.1941 30.8934 23.2145 30.8893C26.6226 30.8893 29.0837 29.1419 30.5979 25.6471V30.437H36.7337L33.7032 27.0785V10.4719Z" fill="#FAF9EF"/>
<path d="M58.2432 17.8613C58.2432 15.2484 57.7008 13.25 56.6159 11.8662C55.531 10.4823 53.966 9.79137 51.9207 9.79344C50.2608 9.76718 48.6379 10.283 47.3002 11.262C45.8777 12.3529 44.7674 13.7961 44.0799 15.4477V10.472H37.605L40.8222 14.0535V26.9515L39.1949 30.4587H46.9206L44.4315 27.5929V18.0007C44.833 16.4136 45.6726 14.9701 46.8553 13.8336C47.8706 12.8543 49.2285 12.3066 50.6419 12.3061C53.2929 12.3061 54.6184 14.1919 54.6184 17.9635V27.0507L53.0284 30.4587H60.6763L58.2525 27.6703L58.2432 17.8613Z" fill="#FAF9EF"/>
<path d="M90.0639 11.0543C88.7827 10.1812 87.2601 9.72748 85.7079 9.75616C84.1613 9.72854 82.6425 10.1682 81.3518 11.0172C80.0673 11.8874 79.0668 13.1131 78.4738 14.543V10.4719H71.9895L75.2099 14.0534V34.5019L73.5732 37.9998H81.299L78.8098 35.1339V26.7996C79.4627 28.0495 80.4446 29.0991 81.6506 29.8359C82.8619 30.5592 84.252 30.9316 85.6643 30.911C87.2337 30.9424 88.7731 30.4806 90.0639 29.5911C91.3717 28.6538 92.3832 27.3639 92.9793 25.8732C93.6973 24.0941 94.0456 22.1885 94.003 20.2716C94.0442 18.3739 93.6959 16.4878 92.9793 14.7289C92.3786 13.2526 91.3672 11.9778 90.0639 11.0543ZM88.6451 26.1397C88.1701 26.8277 87.5299 27.3866 86.7827 27.7653C86.0355 28.1441 85.205 28.3308 84.3668 28.3085C83.1525 28.323 81.9649 27.953 80.9754 27.252C79.9654 26.5317 79.2045 25.5175 78.7973 24.3489V16.3152C79.2082 15.1434 79.9679 14.1242 80.9754 13.3935C81.9708 12.6787 83.1708 12.3018 84.3979 12.3184C85.2317 12.2946 86.0582 12.4788 86.8022 12.8544C87.5462 13.2299 88.184 13.7849 88.6575 14.4686C89.7071 15.9 90.2309 17.8488 90.2288 20.315C90.2267 22.7812 89.7019 24.7228 88.6544 26.1397H88.6451Z" fill="#FAF9EF"/>
<path d="M112 27.915C110.884 28.4473 109.658 28.7125 108.421 28.6896C106.021 28.6896 104.155 27.9791 102.821 26.558C101.487 25.1369 100.755 23.0818 100.624 20.3925H115.167C115.217 16.9472 114.516 14.3137 113.064 12.492C111.612 10.6702 109.51 9.75931 106.76 9.75931C104.929 9.72242 103.124 10.1991 101.551 11.1349C100.042 12.0605 98.8267 13.3938 98.0479 14.9799C97.1893 16.7477 96.7629 18.6926 96.8033 20.6559C96.7597 22.5244 97.1662 24.3761 97.9887 26.0561C98.7435 27.5594 99.9292 28.8058 101.396 29.6377C102.99 30.5094 104.787 30.9455 106.604 30.9018C108.485 30.9432 110.341 30.481 111.981 29.5633C113.573 28.6089 114.866 27.2312 115.715 25.5852L115.376 25.3187C114.397 26.3584 113.257 27.2349 112 27.915ZM102.354 13.4338C102.866 12.813 103.515 12.3184 104.251 11.9884C104.987 11.6584 105.789 11.5021 106.595 11.5315C108.313 11.5315 109.613 12.1512 110.497 13.3905C111.38 14.6298 111.83 16.435 111.844 18.8062H100.584C100.708 16.4928 101.301 14.701 102.363 13.4307L102.354 13.4338Z" fill="#FAF9EF"/>
<path d="M131.337 10.9057C130.811 10.5393 130.177 10.3593 129.536 10.3945C128.755 10.3964 127.984 10.5631 127.273 10.8835C126.562 11.2039 125.927 11.6708 125.41 12.2534C124.221 13.4927 123.401 15.1833 122.949 17.3252V10.4719H116.471L119.691 14.0535V26.9515L118.067 30.4587H125.793L123.304 27.5928V19.5962C124.088 16.4794 125.325 14.6442 127.015 14.0907C127.203 14.0491 127.393 14.0242 127.585 14.0163C127.762 14.0147 127.939 14.0271 128.114 14.0535C128.266 14.0783 128.391 14.1031 128.493 14.1278C128.849 14.2174 129.213 14.2694 129.579 14.2828C130.216 14.3192 130.846 14.1329 131.359 13.7561C131.568 13.5887 131.735 13.3754 131.846 13.1329C131.958 12.8904 132.012 12.6254 132.003 12.3587C132.017 12.0811 131.964 11.8041 131.848 11.5512C131.733 11.2983 131.557 11.0769 131.337 10.9057Z" fill="#FAF9EF"/>
<path d="M66.1369 5.76898C67.2135 5.64195 68.3149 5.60787 69.351 5.29804C70.0356 5.09046 70.8445 4.60714 71.1743 4.00298C71.7344 2.96816 72.0549 1.79393 72.4532 0.613495C72.4716 0.561266 72.4785 0.505681 72.4734 0.450551C72.4682 0.395421 72.4512 0.342045 72.4234 0.294083C72.3956 0.24612 72.3578 0.204705 72.3124 0.17267C72.2671 0.140634 72.2153 0.118737 72.1607 0.108479C69.8641 -0.240459 67.5202 0.29101 65.6017 1.59564C64.9459 2.03482 64.3489 2.55538 63.8251 3.14476C63.2028 3.86356 62.148 6.06331 62.0267 6.32666C60.8163 8.98496 61.4449 12.8671 64.7492 13.9948L64.7959 14.0537V26.9517L63.1686 30.4589H70.8943L68.4052 27.593V10.4721H64.1643C61.6253 10.4721 61.2799 8.17012 63.0628 6.93392C63.9792 6.30641 65.0334 5.90692 66.1369 5.76898Z" fill="#FAF9EF"/>
</g>
</g>
<defs>
<clipPath id="clip0_1_770">
<rect width="132" height="38" fill="white"/>
</clipPath>
</defs>
</svg>
