<svg width="100" height="32" viewBox="0 0 100 32" fill="none" xmlns="http://www.w3.org/2000/svg">
<path d="M8.69059 6.91144V16.9857C8.68587 17.4267 8.71263 17.8675 8.77073 18.3047C8.82413 18.67 8.90505 19.1186 9.01347 19.6504C9.11851 20.0693 9.18033 20.4979 9.198 20.9294C9.198 21.4798 9.08228 21.9016 8.85083 22.195C8.61939 22.4884 8.28154 22.6351 7.83725 22.6351C7.60879 22.6398 7.38197 22.5956 7.17205 22.5054C6.94073 22.3973 6.71758 22.2725 6.50445 22.132C6.20259 21.9704 5.95981 21.8491 5.77613 21.7683C5.57741 21.6855 5.36385 21.6443 5.14855 21.6471C4.80769 21.6292 4.47316 21.7439 4.21511 21.9671C4.10088 22.0717 4.01071 22.1998 3.95079 22.3425C3.89086 22.4852 3.86261 22.6392 3.86795 22.7939C3.86795 23.291 4.13457 23.6906 4.66788 23.9929C5.20115 24.2952 5.89265 24.4459 6.74236 24.4451C8.21922 24.4451 9.34446 23.9832 10.1181 23.0594C10.8917 22.1356 11.2789 20.794 11.2797 19.0345V6.98782L12.9585 4.80566H6.87587L8.69059 6.91144Z" fill="#133F26"/>
<path d="M27.611 10.0027H23.0736L25.1554 12.3751V18.7713C24.8519 20.0151 24.336 20.985 23.6077 21.6808C23.2662 22.0163 22.8616 22.2809 22.4172 22.4594C21.9729 22.6379 21.4975 22.7268 21.0186 22.721C20.1114 22.721 19.413 22.4321 18.9234 21.8542C18.4338 21.2763 18.1911 20.437 18.1951 19.3362V10.0027H13.7645L15.6594 12.1618V19.5181C15.6594 21.0456 16.064 22.249 16.8732 23.1283C17.6824 24.0077 18.798 24.4465 20.2198 24.4449C22.6208 24.4449 24.3555 23.21 25.4236 20.7401V24.1249H29.7498L27.6147 21.7524L27.611 10.0027Z" fill="#133F26"/>
<path d="M44.9048 15.2314C44.9048 13.3839 44.522 11.9695 43.7566 10.9884C42.9909 10.0072 41.888 9.51863 40.4477 9.52266C39.2777 9.50385 38.1338 9.8693 37.1921 10.5628C36.2491 11.2554 35.4931 12.2415 34.9233 13.5208V10.0052H30.3568L32.6254 12.5365V21.6518L31.4771 24.131H36.9214L35.1636 22.1028V15.3333C35.5189 14.0894 36.0883 13.1079 36.8717 12.3886C37.6547 11.6693 38.5449 11.3092 39.5419 11.3084C41.4099 11.3084 42.3435 12.6419 42.3435 15.309V21.7342L41.2233 24.1334H46.6141L44.906 22.161L44.9048 15.2314Z" fill="#133F26"/>
<path d="M67.3346 10.4163C66.4547 9.80285 65.4276 9.49614 64.2523 9.49614C63.1644 9.47766 62.096 9.78918 61.1887 10.3896C60.2827 11.0035 59.5772 11.8698 59.1602 12.8809V10.0029H54.5963L56.865 12.5342V26.9801L55.7178 29.4592H61.162L59.4005 27.4335V21.5428C59.8595 22.4266 60.5512 23.1685 61.4011 23.6886C62.2531 24.1979 63.2305 24.4599 64.2235 24.4451C65.3276 24.466 66.4106 24.1395 67.3188 23.5116C68.209 22.8893 68.8939 22.0144 69.3736 20.887C69.8537 19.7596 70.0949 18.4401 70.0971 16.9288C70.0971 15.436 69.8568 14.13 69.3761 13.0106C68.8955 11.8913 68.2149 11.0265 67.3346 10.4163ZM66.3342 21.0773C65.5865 22.0997 64.5812 22.6105 63.3177 22.6097C62.4626 22.6206 61.6262 22.359 60.93 21.8629C60.2181 21.3543 59.6819 20.637 59.3959 19.8105V14.1405C59.685 13.3134 60.2203 12.5942 60.93 12.0796C61.6321 11.5731 62.4788 11.3065 63.3445 11.3195C64.6085 11.3195 65.6095 11.8258 66.3476 12.8385C67.0856 13.8511 67.4548 15.2283 67.4548 16.97C67.4548 18.6866 67.0813 20.0557 66.3342 21.0773Z" fill="#133F26"/>
<path d="M82.7858 22.3296C81.999 22.7051 81.1352 22.8923 80.2633 22.8764C78.5736 22.8764 77.2574 22.374 76.3148 21.3695C75.3718 20.3648 74.8554 18.9125 74.7657 17.0124H85.0145C85.0499 14.5781 84.5562 12.7168 83.5335 11.4285C82.5107 10.1402 81.0293 9.49609 79.0897 9.49609C77.7018 9.49609 76.4784 9.81938 75.4199 10.4659C74.3562 11.1203 73.4998 12.0628 72.9512 13.1839C72.3653 14.3478 72.0719 15.6849 72.0709 17.1955C72.0709 18.6502 72.351 19.9252 72.9111 21.0203C73.4436 22.0827 74.2795 22.9635 75.3131 23.5516C76.3548 24.1472 77.5779 24.4451 78.9829 24.4451C80.4232 24.4451 81.6863 24.1295 82.7725 23.4983C83.8583 22.867 84.7388 21.9299 85.4138 20.6869L85.171 20.5002C84.3156 21.3521 83.5204 21.9618 82.7858 22.3296ZM75.9978 12.0953C76.7414 11.1957 77.7365 10.746 78.9829 10.746C80.1966 10.746 81.1132 11.1816 81.732 12.0528C82.3511 12.9241 82.6622 14.2035 82.6656 15.891H74.739C74.8287 14.2576 75.2485 12.9924 75.9978 12.0953Z" fill="#133F26"/>
<path d="M96.4113 10.3095C96.0998 10.067 95.6769 9.9458 95.1429 9.9458C94.0397 9.9458 93.0688 10.3855 92.2295 11.2648C91.3902 12.1441 90.8121 13.339 90.4948 14.8496V10.0003H85.9367L88.2043 12.5316V21.647L87.0573 24.1262H92.5062L90.745 22.1004V16.4523C91.2928 14.2499 92.1631 12.9539 93.356 12.5644C93.4876 12.5351 93.6218 12.5177 93.7565 12.5122C93.8817 12.511 94.0065 12.5196 94.1304 12.5377C94.2372 12.5559 94.326 12.5741 94.3974 12.591C94.6508 12.6536 94.91 12.6893 95.1708 12.6977C95.7049 12.6977 96.1231 12.5737 96.4259 12.3256C96.569 12.1994 96.6836 12.0441 96.7615 11.8699C96.8397 11.6958 96.8795 11.507 96.8782 11.3163C96.877 11.1256 96.8348 10.9373 96.7544 10.7642C96.6739 10.5912 96.5575 10.4373 96.4125 10.3131L96.4113 10.3095Z" fill="#133F26"/>
<path d="M50.4716 6.70895C50.8234 6.66166 51.1755 6.60347 51.5289 6.55618C52.4175 6.43497 53.539 6.31372 54.0159 5.43117C54.4118 4.70377 54.8729 2.80169 54.7102 2.77502C53.1046 2.50906 51.4575 2.84914 50.0891 3.7291C45.4596 6.72227 46.3371 11.3084 49.4895 12.4929L49.5212 12.5341V21.6494L48.3739 24.1286H53.8182L52.0567 22.1028V10.0028H49.0769C48.1824 10.0028 47.5316 9.49605 47.567 8.66926C47.6213 7.39027 49.3222 6.86656 50.4716 6.70895Z" fill="#133F26"/>
</svg>
