<svg width="25" height="25" viewBox="0 0 25 25" fill="none" xmlns="http://www.w3.org/2000/svg">
<g clip-path="url(#clip0_1_124)">
<mask id="mask0_1_124" style="mask-type:luminance" maskUnits="userSpaceOnUse" x="0" y="1" width="24" height="24">
<path d="M23.83 1.21216H0.790009V24.2522H23.83V1.21216Z" fill="white"/>
</mask>
<g mask="url(#mask0_1_124)">
<path fill-rule="evenodd" clip-rule="evenodd" d="M3.51329 4.73122C5.88317 2.46918 9.03437 1.20865 12.3105 1.21217C14.5888 1.21226 16.8159 1.8879 18.7101 3.15364C20.6046 4.41947 22.0812 6.21865 22.9531 8.32365C23.825 10.4287 24.0531 12.745 23.6086 14.9796C23.1642 17.2143 22.067 19.2669 20.4559 20.878C18.8448 22.4892 16.7922 23.5864 14.5575 24.0308C12.3228 24.4753 10.0065 24.2472 7.9015 23.3753C5.79649 22.5034 3.99731 21.0268 2.73147 19.1323C1.46565 17.2379 0.790009 15.0106 0.790009 12.7322C0.790009 12.2777 1.15841 11.9093 1.61287 11.9093C2.06732 11.9093 2.43573 12.2777 2.43573 12.7322C2.43573 14.6851 3.01484 16.5942 4.09984 18.218C5.18484 19.8419 6.72699 21.1074 8.53129 21.8548C10.3356 22.6022 12.321 22.7977 14.2363 22.4167C16.1518 22.0358 17.9112 21.0953 19.2922 19.7144C20.6731 18.3334 21.6136 16.5739 21.9946 14.6585C22.3756 12.7432 22.1801 10.7577 21.4327 8.95344C20.6853 7.14915 19.4197 5.607 17.7958 4.52199C16.1721 3.437 14.2629 2.85788 12.31 2.85788C9.45752 2.85472 6.71297 3.95219 4.64958 5.92168C4.32085 6.23547 3.79998 6.22333 3.48621 5.8946C3.17242 5.56586 3.18456 5.045 3.51329 4.73122Z" fill="#F1F5E9"/>
<path fill-rule="evenodd" clip-rule="evenodd" d="M5.10396 1.23668C5.54484 1.3469 5.8129 1.79365 5.70267 2.23453L5.07939 4.72767L7.57253 5.35096C8.01341 5.46118 8.28146 5.90795 8.17124 6.34882C8.06103 6.78971 7.61427 7.05776 7.17338 6.94754L3.88195 6.12468C3.67023 6.07175 3.48821 5.93689 3.37593 5.74975C3.26366 5.56261 3.23031 5.33854 3.28324 5.12682L4.10609 1.83539C4.21631 1.39451 4.66308 1.12646 5.10396 1.23668Z" fill="#F1F5E9"/>
<path fill-rule="evenodd" clip-rule="evenodd" d="M12.31 6.14917C12.7645 6.14917 13.1329 6.51757 13.1329 6.97202V13.5549C13.1329 13.8665 12.9568 14.1515 12.678 14.2909L8.39916 16.4303C7.99268 16.6336 7.49842 16.4688 7.29518 16.0623C7.09194 15.6558 7.2567 15.1616 7.66317 14.9584L11.4872 13.0463V6.97202C11.4872 6.51757 11.8555 6.14917 12.31 6.14917Z" fill="#F1F5E9"/>
</g>
</g>
<defs>
<clipPath id="clip0_1_124">
<rect width="23.04" height="24" fill="white" transform="translate(0.790009 0.330078)"/>
</clipPath>
</defs>
</svg>
