<svg width="14" height="15" viewBox="0 0 14 15" fill="none" xmlns="http://www.w3.org/2000/svg">
<g clip-path="url(#clip0_1_646)">
<path d="M11.234 5.90002C11.2392 5.14404 11.042 4.40043 10.6628 3.74641C10.2836 3.09239 9.73623 2.55179 9.07756 2.18073C8.41888 1.80967 7.67289 1.62169 6.91702 1.63629C6.16116 1.65089 5.42299 1.86754 4.77913 2.26377C4.13528 2.65998 3.60921 3.22133 3.25555 3.8895C2.90189 4.55768 2.73353 5.30835 2.76794 6.06356C2.80236 6.81878 3.03829 7.55103 3.45125 8.18428C3.86422 8.81752 4.43916 9.32866 5.11638 9.66474V11.0764C5.11638 11.2013 5.16596 11.3209 5.25421 11.4092C5.34246 11.4975 5.46215 11.5471 5.58697 11.5471H8.41048C8.53529 11.5471 8.65499 11.4975 8.74324 11.4092C8.83148 11.3209 8.88107 11.2013 8.88107 11.0764V9.66474C9.58457 9.31812 10.1775 8.78216 10.5932 8.11711C11.0088 7.45206 11.2307 6.68427 11.234 5.90002Z" stroke="#133F26" stroke-width="1.17646" stroke-linecap="round" stroke-linejoin="round"/>
<path d="M5.1167 13.8999H8.88139" stroke="#133F26" stroke-width="1.17646" stroke-linecap="round" stroke-linejoin="round"/>
</g>
<defs>
<clipPath id="clip0_1_646">
<rect width="9.88235" height="14" fill="white" transform="translate(2.05884 0.849731)"/>
</clipPath>
</defs>
</svg>
