<svg width="14" height="15" viewBox="0 0 14 15" fill="none" xmlns="http://www.w3.org/2000/svg">
<g clip-path="url(#clip0_1_653)">
<mask id="mask0_1_653" style="mask-type:luminance" maskUnits="userSpaceOnUse" x="0" y="1" width="14" height="14">
<path d="M13.5882 1.19397H0.411743V14.3704H13.5882V1.19397Z" fill="white"/>
</mask>
<g mask="url(#mask0_1_653)">
<path fill-rule="evenodd" clip-rule="evenodd" d="M6.31486 1.22468C5.17402 1.33212 3.9913 1.80217 3.00256 2.54108C2.67025 2.78946 2.00734 3.45237 1.75897 3.78468C0.868578 4.97612 0.411987 6.33116 0.411987 7.78216C0.411987 9.23312 0.868578 10.5882 1.75897 11.7796C2.00734 12.1119 2.67025 12.7749 3.00256 13.0232C3.93214 13.7179 4.94374 14.1423 6.06174 14.3065C6.45883 14.3648 7.16543 14.3832 7.57989 14.3461C8.82364 14.2346 9.97066 13.7906 10.9975 13.0232C11.3298 12.7749 11.9928 12.1119 12.2411 11.7796C12.969 10.8056 13.4272 9.67157 13.5368 8.57275C13.5534 8.40606 13.5777 8.24911 13.5908 8.22394C13.6244 8.15933 13.622 7.30014 13.5883 7.32098C13.5723 7.33086 13.5619 7.29268 13.5617 7.22371C13.5616 7.08828 13.5003 6.66092 13.4415 6.38545C13.2458 5.46773 12.837 4.58196 12.2411 3.78468C11.9928 3.45237 11.3298 2.78946 10.9975 2.54108C9.62519 1.51551 8.01953 1.06411 6.31486 1.22468ZM6.39392 2.17162C4.31979 2.40405 2.55851 3.73443 1.77185 5.66288C0.767198 8.12582 1.64275 10.9794 3.86072 12.4707C5.84001 13.8016 8.4582 13.7298 10.3935 12.2914C10.6894 12.0715 11.2894 11.4715 11.5093 11.1756C13.1637 8.94954 12.9852 5.88367 11.0856 3.89868C10.1317 2.90191 8.94652 2.31853 7.57424 2.17027C7.28028 2.13852 6.68323 2.1392 6.39392 2.17162ZM6.64427 4.04006C5.96771 4.16211 5.39398 4.60349 5.09103 5.23507C4.95059 5.52779 4.89178 5.77965 4.89191 6.08759C4.89202 6.35154 4.93465 6.4535 5.08262 6.5437C5.20229 6.61667 5.50275 6.61725 5.62167 6.54473C5.75728 6.46203 5.7961 6.37583 5.83205 6.07752C5.88897 5.60527 6.09466 5.28522 6.45609 5.1066C6.93977 4.86755 7.44867 4.9425 7.82199 5.30777C8.3477 5.82221 8.26509 6.69847 7.65259 7.10423C7.46683 7.2273 7.29735 7.28161 7.01506 7.30852C6.76658 7.33221 6.69616 7.36455 6.5932 7.50237C6.54192 7.57096 6.53844 7.61545 6.53122 8.29132C6.52373 8.9934 6.52476 9.00992 6.58393 9.12556C6.6672 9.28838 6.77422 9.34471 7.00004 9.34471C7.20014 9.34471 7.31135 9.29694 7.40574 9.17036C7.45563 9.10358 7.46253 9.05058 7.47439 8.64438L7.48757 8.19266L7.56663 8.1754C7.61011 8.16588 7.70754 8.13315 7.78309 8.10267C8.70234 7.73167 9.2387 6.79008 9.0922 5.80445C8.97048 4.98569 8.35397 4.30093 7.54027 4.08071C7.35309 4.03005 6.83103 4.00637 6.64427 4.04006ZM0.422634 7.78216C0.422634 8.0358 0.426587 8.13959 0.431436 8.01275C0.436258 7.88591 0.436258 7.67838 0.431436 7.55157C0.426587 7.42476 0.422634 7.52851 0.422634 7.78216ZM6.78139 10.0849C6.53805 10.1756 6.34335 10.3725 6.2855 10.5862C6.23971 10.7554 6.26938 11.0259 6.34838 11.1599C6.59871 11.5845 7.1282 11.677 7.48928 11.3591C7.66086 11.2081 7.73739 11.0355 7.73739 10.7996C7.73739 10.497 7.59588 10.2678 7.32202 10.1268C7.17961 10.0534 6.91974 10.0333 6.78139 10.0849Z" fill="#133F26"/>
</g>
</g>
<defs>
<clipPath id="clip0_1_653">
<rect width="13.1765" height="14" fill="white" transform="translate(0.411743 0.849731)"/>
</clipPath>
</defs>
</svg>
