<svg width="14" height="15" viewBox="0 0 14 15" fill="none" xmlns="http://www.w3.org/2000/svg">
<g clip-path="url(#clip0_1_636)">
<mask id="mask0_1_636" style="mask-type:luminance" maskUnits="userSpaceOnUse" x="0" y="1" width="14" height="14">
<path d="M13.5881 1.19397H0.411743V14.3704H13.5881V1.19397Z" fill="white"/>
</mask>
<g mask="url(#mask0_1_636)">
<path fill-rule="evenodd" clip-rule="evenodd" d="M0.810281 1.19811C0.633601 1.22254 0.476233 1.36512 0.424676 1.54747C0.4153 1.58063 0.414989 1.78004 0.414989 7.78254C0.414989 13.785 0.4153 13.9845 0.424676 14.0176C0.449205 14.1044 0.491385 14.1749 0.556103 14.2373C0.620282 14.2992 0.681821 14.3347 0.765481 14.3585C0.798644 14.3678 0.998055 14.3681 7.00056 14.3681C13.0076 14.3681 13.2024 14.3678 13.2356 14.3584C13.4074 14.3097 13.549 14.1624 13.5783 14.0018C13.5818 13.9829 13.5868 13.9634 13.5893 13.9584C13.5921 13.953 13.5935 11.3865 13.5928 7.77339C13.5919 3.79776 13.5905 2.43781 13.5887 3.95611C13.5873 5.25333 13.5855 6.30861 13.5848 6.30119C13.5824 6.27638 13.563 6.2094 13.5494 6.17838C13.5204 6.1129 13.4789 6.05844 13.4227 6.01225C13.4024 5.99555 12.6424 5.45095 11.7337 4.80201C10.6575 4.03339 10.0648 3.61327 10.0334 3.59671C9.96248 3.55939 9.91768 3.54871 9.83088 3.54848C9.77463 3.54833 9.74976 3.55075 9.71229 3.56C9.61701 3.58351 9.5237 3.64107 9.46622 3.71189C9.45008 3.73171 8.66106 4.91186 7.71277 6.33446C6.76448 7.75704 5.98682 8.92098 5.98464 8.92098C5.98248 8.92098 5.53955 8.47966 5.00038 7.94026C4.46119 7.40087 4.00659 6.94905 3.99014 6.93621C3.8962 6.86296 3.77788 6.83072 3.65328 6.84443C3.58805 6.85162 3.54183 6.86526 3.49129 6.89226C3.37041 6.95684 3.28524 7.06329 3.24706 7.19751C3.2428 7.21246 3.24026 7.25434 3.24016 7.31082C3.24003 7.38896 3.24156 7.40579 3.25213 7.44229C3.26843 7.49857 3.29887 7.55551 3.33976 7.6062C3.39227 7.67128 5.75874 10.0329 5.7948 10.0562C5.86669 10.1026 5.93205 10.1255 6.01232 10.1325C6.16399 10.1456 6.29024 10.0998 6.39643 9.99309C6.4197 9.96962 6.86384 9.30734 8.18534 7.32532C9.15221 5.8752 9.94518 4.68872 9.94741 4.68872C9.94971 4.68872 10.6038 5.15459 11.4009 5.72397C12.198 6.29336 12.8671 6.76921 12.8876 6.78139C13.0357 6.86939 13.2388 6.86027 13.3877 6.75894C13.4225 6.73526 13.4828 6.67328 13.507 6.63627C13.547 6.57531 13.579 6.49619 13.5849 6.44382C13.5861 6.43367 13.5872 8.09509 13.5874 10.1358C13.5877 13.1882 13.5866 13.8396 13.581 13.8088C13.559 13.6875 13.4813 13.5741 13.3711 13.5026C13.3261 13.4732 13.2879 13.4563 13.2336 13.4416L13.1908 13.43L7.27333 13.4286L1.35584 13.4273L1.35446 7.50977L1.3531 1.59227L1.34152 1.5495C1.29292 1.37008 1.14674 1.23276 0.97166 1.20208C0.930919 1.19494 0.847939 1.19289 0.810281 1.19811ZM0.414989 7.78254C0.414989 11.1814 0.415579 12.5718 0.416306 10.8724C0.417034 9.17294 0.417034 6.3921 0.416306 4.69268C0.415579 2.99325 0.414989 4.38369 0.414989 7.78254Z" fill="#133F26"/>
</g>
</g>
<defs>
<clipPath id="clip0_1_636">
<rect width="13.1765" height="14" fill="white" transform="translate(0.411743 0.849731)"/>
</clipPath>
</defs>
</svg>
