<svg width="238" height="25" viewBox="0 0 238 25" fill="none" xmlns="http://www.w3.org/2000/svg">
<g clip-path="url(#clip0_1_49)">
<mask id="mask0_1_49" style="mask-type:luminance" maskUnits="userSpaceOnUse" x="0" y="0" width="98" height="25">
<path d="M97.7254 0.26001H0V24.26H97.7254V0.26001Z" fill="white"/>
</mask>
<g mask="url(#mask0_1_49)">
<path d="M25.6822 8.76611H35.5773V10.6123H31.6866V20.9904H29.5471V10.6123H25.6736V8.76611H25.6822ZM35.1546 12.1392H36.9835V13.8473H37.018C37.0784 13.6058 37.1905 13.3729 37.3544 13.1486C37.5183 12.9243 37.7167 12.7086 37.9497 12.5274C38.1826 12.3376 38.4414 12.191 38.7261 12.0702C39.0108 11.9581 39.3041 11.8977 39.5974 11.8977C39.8217 11.8977 39.9856 11.9063 40.0719 11.9149C40.1582 11.9235 40.2444 11.9408 40.3393 11.9494V13.8301C40.2013 13.8042 40.0633 13.787 39.9166 13.7697C39.7699 13.7524 39.6319 13.7438 39.4939 13.7438C39.1661 13.7438 38.8555 13.8128 38.5622 13.9422C38.2689 14.0716 38.0187 14.2701 37.803 14.5202C37.5873 14.779 37.4148 15.0896 37.2854 15.4692C37.156 15.8488 37.0956 16.2801 37.0956 16.7719V20.9818H35.1459V12.1392H35.1546ZM49.3027 20.9904H47.3875V19.7568H47.353C47.1114 20.2054 46.7577 20.5591 46.2832 20.8265C45.8088 21.0939 45.3257 21.232 44.8339 21.232C43.6693 21.232 42.8239 20.9473 42.3063 20.3693C41.7886 19.7913 41.5298 18.92 41.5298 17.7553V12.1392H43.4795V17.5655C43.4795 18.342 43.6262 18.8941 43.9281 19.2133C44.2214 19.5325 44.6441 19.6964 45.179 19.6964C45.5931 19.6964 45.9295 19.636 46.2056 19.5066C46.4817 19.3772 46.706 19.2133 46.8699 18.9976C47.0424 18.7905 47.1632 18.5317 47.2408 18.2384C47.3185 17.9451 47.353 17.6259 47.353 17.2808V12.1478H49.3027V20.9904ZM52.624 18.1522C52.6844 18.7215 52.9001 19.1184 53.271 19.3513C53.6506 19.5756 54.0992 19.6964 54.6254 19.6964C54.8066 19.6964 55.0137 19.6791 55.2466 19.6532C55.4795 19.6274 55.7038 19.567 55.9022 19.4893C56.1093 19.4117 56.2732 19.2909 56.4112 19.1356C56.5406 18.9803 56.601 18.7819 56.5924 18.5317C56.5838 18.2816 56.4889 18.0745 56.3163 17.9192C56.1438 17.7553 55.9281 17.6345 55.6607 17.531C55.3932 17.4361 55.0913 17.3499 54.7462 17.2808C54.4011 17.2118 54.0561 17.1342 53.7024 17.0565C53.34 16.9789 52.9863 16.8754 52.6499 16.7632C52.3134 16.6511 52.0115 16.4958 51.7441 16.2974C51.4766 16.1076 51.261 15.8574 51.1057 15.5555C50.9418 15.2535 50.8641 14.8826 50.8641 14.434C50.8641 13.9509 50.9849 13.554 51.2178 13.2262C51.4508 12.8984 51.7527 12.6396 52.1064 12.4412C52.4687 12.2427 52.8656 12.1047 53.3055 12.0184C53.7455 11.9408 54.1682 11.8977 54.5651 11.8977C55.0223 11.8977 55.4623 11.9494 55.8763 12.0443C56.2904 12.1392 56.67 12.2945 57.0065 12.5188C57.3429 12.7345 57.619 13.0192 57.8433 13.3642C58.0676 13.7093 58.2056 14.132 58.266 14.6238H56.23C56.1352 14.1579 55.9281 13.8387 55.5917 13.6834C55.2552 13.5195 54.867 13.4419 54.4357 13.4419C54.2976 13.4419 54.1337 13.4505 53.9439 13.4764C53.7541 13.5023 53.5816 13.5454 53.4091 13.6058C53.2451 13.6662 53.1071 13.7611 52.9863 13.8818C52.8742 14.0026 52.8138 14.1579 52.8138 14.3563C52.8138 14.5979 52.9001 14.7877 53.064 14.9343C53.2279 15.081 53.4436 15.2018 53.711 15.3053C53.9784 15.4002 54.2804 15.4864 54.6254 15.5555C54.9705 15.6245 55.3242 15.7021 55.6866 15.7798C56.0403 15.8574 56.3853 15.9609 56.7304 16.0731C57.0755 16.1852 57.3774 16.3405 57.6449 16.5389C57.9123 16.7373 58.128 16.9789 58.2919 17.2722C58.4558 17.5655 58.5421 17.9365 58.5421 18.3678C58.5421 18.8941 58.4213 19.334 58.1797 19.705C57.9382 20.0673 57.6276 20.3693 57.248 20.5936C56.8684 20.8179 56.4371 20.9904 55.9712 21.0939C55.5054 21.1974 55.0395 21.2492 54.5823 21.2492C54.0216 21.2492 53.504 21.1888 53.0295 21.0594C52.555 20.93 52.1409 20.7402 51.7958 20.49C51.4508 20.2312 51.1747 19.912 50.9763 19.5325C50.7779 19.1529 50.6743 18.6957 50.6571 18.1694H52.624V18.1522ZM59.0597 12.1392H60.5349V9.48215H62.4845V12.1392H64.2444V13.5972H62.4845V18.3247C62.4845 18.5317 62.4932 18.7043 62.5104 18.8596C62.5277 19.0062 62.5708 19.1356 62.6312 19.2391C62.6916 19.3427 62.7865 19.4203 62.9159 19.4721C63.0453 19.5238 63.2092 19.5497 63.4335 19.5497C63.5715 19.5497 63.7096 19.5497 63.8476 19.5411C63.9856 19.5325 64.1237 19.5152 64.2617 19.4807V20.9904C64.046 21.0163 63.8303 21.0335 63.6319 21.0594C63.4249 21.0853 63.2178 21.0939 63.0022 21.0939C62.4845 21.0939 62.0705 21.0422 61.7599 20.9473C61.4493 20.8524 61.1991 20.7057 61.0266 20.5159C60.8454 20.3261 60.7333 20.0932 60.6643 19.8085C60.6039 19.5238 60.5607 19.196 60.5521 18.8337V13.6144H59.0769V12.1392H59.0597ZM65.6247 12.1392H67.4709V13.3384H67.5054C67.7815 12.8207 68.161 12.4584 68.6528 12.2341C69.1445 12.0098 69.6707 11.8977 70.2487 11.8977C70.9475 11.8977 71.5514 12.0184 72.069 12.2686C72.5866 12.5102 73.018 12.8466 73.3631 13.278C73.7081 13.7093 73.9583 14.2097 74.1308 14.779C74.3034 15.3484 74.3896 15.9609 74.3896 16.6079C74.3896 17.2032 74.312 17.7812 74.1567 18.3333C74.0014 18.8941 73.7685 19.3858 73.4579 19.8171C73.1474 20.2485 72.7505 20.5849 72.2674 20.8437C71.7843 21.1026 71.2236 21.232 70.5679 21.232C70.2832 21.232 69.9986 21.2061 69.7139 21.1543C69.4292 21.1026 69.1531 21.0163 68.8943 20.9041C68.6355 20.792 68.3853 20.6453 68.1697 20.4642C67.9454 20.283 67.7642 20.076 67.6089 19.843H67.5744V24.26H65.6247V12.1392ZM72.44 16.5734C72.44 16.1766 72.3882 15.7884 72.2847 15.4088C72.1812 15.0292 72.0259 14.7014 71.8188 14.4081C71.6118 14.1148 71.353 13.8818 71.051 13.7093C70.7405 13.5368 70.3868 13.4419 69.9899 13.4419C69.1704 13.4419 68.5492 13.7266 68.1352 14.2959C67.7211 14.8653 67.514 15.6245 67.514 16.5734C67.514 17.022 67.5658 17.4361 67.6779 17.8157C67.7901 18.1953 67.9454 18.5231 68.1697 18.7992C68.3853 19.0752 68.6441 19.2909 68.9461 19.4462C69.248 19.6101 69.6017 19.6877 69.9986 19.6877C70.4472 19.6877 70.8181 19.5928 71.1287 19.4117C71.4393 19.2305 71.6894 18.989 71.8878 18.7043C72.0863 18.411 72.2329 18.0831 72.3192 17.7122C72.3968 17.3412 72.44 16.9616 72.44 16.5734ZM75.8821 8.76611H77.8318V10.6123H75.8821V8.76611ZM75.8821 12.1392H77.8318V20.9904H75.8821V12.1392ZM79.5744 8.76611H81.5241V20.9904H79.5744V8.76611ZM87.5025 21.232C86.7951 21.232 86.1654 21.1112 85.6132 20.8783C85.0611 20.6453 84.5953 20.3175 84.207 19.912C83.8275 19.498 83.5341 19.0062 83.3357 18.4368C83.1373 17.8675 83.0338 17.2377 83.0338 16.5562C83.0338 15.8833 83.1373 15.2622 83.3357 14.6928C83.5341 14.1234 83.8275 13.6317 84.207 13.2176C84.5866 12.8035 85.0611 12.4843 85.6132 12.2514C86.1654 12.0184 86.7951 11.8977 87.5025 11.8977C88.2099 11.8977 88.8397 12.0184 89.3918 12.2514C89.9439 12.4843 90.4098 12.8121 90.798 13.2176C91.1776 13.6317 91.4709 14.1234 91.6693 14.6928C91.8677 15.2622 91.9712 15.8833 91.9712 16.5562C91.9712 17.2377 91.8677 17.8675 91.6693 18.4368C91.4709 19.0062 91.1776 19.498 90.798 19.912C90.4184 20.3261 89.9439 20.6453 89.3918 20.8783C88.8397 21.1112 88.2099 21.232 87.5025 21.232ZM87.5025 19.6877C87.9339 19.6877 88.3134 19.5928 88.6326 19.4117C88.9518 19.2305 89.2106 18.989 89.4177 18.6957C89.6247 18.4023 89.7714 18.0659 89.8749 17.6949C89.9698 17.324 90.0216 16.9444 90.0216 16.5562C90.0216 16.1766 89.9698 15.8056 89.8749 15.4261C89.78 15.0465 89.6247 14.7187 89.4177 14.4253C89.2106 14.132 88.9518 13.8991 88.6326 13.7179C88.3134 13.5368 87.9339 13.4419 87.5025 13.4419C87.0712 13.4419 86.6916 13.5368 86.3724 13.7179C86.0532 13.8991 85.7944 14.1407 85.5873 14.4253C85.3803 14.7187 85.2336 15.0465 85.1301 15.4261C85.0352 15.8056 84.9835 16.1766 84.9835 16.5562C84.9835 16.9444 85.0352 17.324 85.1301 17.6949C85.225 18.0659 85.3803 18.4023 85.5873 18.6957C85.7944 18.989 86.0532 19.2305 86.3724 19.4117C86.6916 19.6015 87.0712 19.6877 87.5025 19.6877ZM92.5406 12.1392H94.0158V9.48215H95.9655V12.1392H97.7254V13.5972H95.9655V18.3247C95.9655 18.5317 95.9741 18.7043 95.9914 18.8596C96.0086 19.0062 96.0518 19.1356 96.1122 19.2391C96.1725 19.3427 96.2674 19.4203 96.3968 19.4721C96.5262 19.5238 96.6902 19.5497 96.9145 19.5497C97.0525 19.5497 97.1905 19.5497 97.3285 19.5411C97.4666 19.5325 97.6046 19.5152 97.7426 19.4807V20.9904C97.527 21.0163 97.3113 21.0335 97.1129 21.0594C96.9058 21.0853 96.6988 21.0939 96.4831 21.0939C95.9655 21.0939 95.5514 21.0422 95.2408 20.9473C94.9303 20.8524 94.6801 20.7057 94.5076 20.5159C94.3264 20.3261 94.2142 20.0932 94.1452 19.8085C94.0848 19.5238 94.0417 19.196 94.0331 18.8337V13.6144H92.5579V12.1392H92.5406Z" fill="black"/>
<path d="M23.4047 8.76612H14.4673L11.7067 0.26001L8.93745 8.76612L0 8.75749L7.23796 14.0199L4.46873 22.5174L11.7067 17.2636L18.936 22.5174L16.1754 14.0199L23.4047 8.76612Z" fill="#21AD79"/>
<path d="M16.7965 15.9438L16.1754 14.02L11.7067 17.2637L16.7965 15.9438Z" fill="#005128"/>
</g>
<path d="M141.725 1.96045H121.725V22.5597H141.725V1.96045Z" fill="#21AD79"/>
<path d="M131.735 15.3782L134.801 14.5834L136.052 18.6432L131.735 15.3782ZM138.722 10.1586H133.362L131.735 4.96045L130.088 10.1371H124.728L129.045 13.3376L127.398 18.5143L131.735 15.3352L134.405 13.3591L138.722 10.1586Z" fill="white"/>
<path d="M165.725 1.91968H145.725V22.6002H165.725V1.91968Z" fill="#21AD79"/>
<path d="M155.715 16.357L158.781 15.5591L160.032 19.6348L155.715 16.357ZM162.722 11.1168H157.363L155.715 5.91968L154.068 11.1168H148.708L153.025 14.3299L151.377 19.527L155.694 16.3139L158.364 14.3299L162.722 11.1168Z" fill="white"/>
<path d="M189.725 1.91968H169.725V22.6002H189.725V1.91968Z" fill="#21AD79"/>
<path d="M179.735 15.357L182.801 14.5591L184.052 18.6348L179.735 15.357ZM186.721 10.1168H181.362L179.714 4.91968L178.067 10.1168H172.707L177.024 13.3299L175.376 18.527L179.693 15.3139L182.363 13.3299L186.721 10.1168Z" fill="white"/>
<path d="M213.725 1.91968H193.725V22.6002H213.725V1.91968Z" fill="#21AD79"/>
<path d="M203.715 15.357L206.78 14.5591L208.032 18.6348L203.715 15.357ZM210.722 10.1168H205.362L203.715 4.91968L202.067 10.1168H196.728L201.045 13.3299L199.398 18.527L203.715 15.3139L206.384 13.3299L210.722 10.1168Z" fill="white"/>
<mask id="mask1_1_49" style="mask-type:luminance" maskUnits="userSpaceOnUse" x="217" y="1" width="21" height="22">
<path d="M237.725 1.96045H217.725V22.5597H237.725V1.96045Z" fill="white"/>
</mask>
<g mask="url(#mask1_1_49)">
<path d="M237 1.26001H216V23.26H237V1.26001Z" fill="#D9D9D9"/>
<mask id="mask2_1_49" style="mask-type:alpha" maskUnits="userSpaceOnUse" x="217" y="1" width="21" height="22">
<path d="M237.725 1.96045H217.725V22.5597H237.725V1.96045Z" fill="#DBDBDB"/>
</mask>
<g mask="url(#mask2_1_49)">
<path d="M228 1.26001H217V23.26H228V1.26001Z" fill="#21AD79"/>
<path d="M227.712 15.316L230.778 14.5212L232.029 18.5809L227.712 15.316ZM234.719 10.0963H229.359L227.712 4.91968L226.064 10.0963H220.725L225.042 13.2968L223.395 18.4735L227.712 15.273L230.381 13.2968L234.719 10.0963Z" fill="white"/>
</g>
</g>
</g>
<defs>
<clipPath id="clip0_1_49">
<rect width="238" height="24" fill="white" transform="translate(0 0.26001)"/>
</clipPath>
</defs>
</svg>
